<svg fill="none" height="146" viewBox="0 0 650 146" width="650" xmlns="http://www.w3.org/2000/svg"><g fill="#212121"><path d="m259.945 114.166c-5.116 0-9.876-.939-14.28-2.817-4.338-1.878-8.159-4.469-11.462-7.772-3.238-3.367-5.764-7.3174-7.577-11.8506-1.813-4.5331-2.72-9.5196-2.72-14.9594 0-5.3751.875-10.3292 2.623-14.8624 1.813-4.5979 4.339-8.5482 7.577-11.851 3.238-3.3675 7.026-5.9578 11.365-7.7711 4.339-1.878 9.099-2.817 14.28-2.817 5.116 0 9.681.8742 13.696 2.6227 4.08 1.7485 7.512 4.0475 10.297 6.8969 2.785 2.7847 4.792 5.8284 6.023 9.1311l-10.2 4.9541c-1.489-3.9503-3.95-7.1235-7.382-9.5196-3.433-2.4609-7.577-3.6913-12.434-3.6913-4.793 0-9.034 1.1333-12.726 3.3998-3.691 2.2666-6.573 5.4075-8.645 9.4226-2.008 4.0151-3.011 8.7101-3.011 14.0852 0 5.375 1.036 10.1025 3.108 14.1823 2.137 4.0151 5.051 7.156 8.743 9.4227 3.691 2.202 7.933 3.303 12.725 3.303 4.015 0 7.674-.81 10.977-2.429 3.367-1.6837 6.055-4.015 8.062-6.9939 2.008-3.0437 3.012-6.5731 3.012-10.5882v-4.9541l5.148 4.6626h-27.393v-9.7139h33.61v6.7998c0 5.3103-.907 10.0701-2.72 14.2795-1.813 4.1446-4.274 7.6742-7.383 10.5882-3.108 2.914-6.67 5.116-10.685 6.605-4.015 1.49-8.224 2.235-12.628 2.235z"/><path d="m320.643 114.166c-3.562 0-6.703-.616-9.423-1.846-2.655-1.295-4.727-3.044-6.217-5.246-1.489-2.266-2.234-4.921-2.234-7.965 0-2.8494.615-5.4074 1.846-7.674 1.295-2.2666 3.27-4.177 5.925-5.7312s5.99-2.6551 10.006-3.3027l18.262-3.0114v8.6454l-16.125 2.8171c-2.915.5181-5.052 1.4571-6.412 2.817-1.36 1.2952-2.04 2.979-2.04 5.0513 0 2.0075.745 3.6585 2.235 4.9545 1.554 1.23 3.529 1.845 5.925 1.845 2.979 0 5.569-.647 7.771-1.943 2.267-1.295 4.015-3.011 5.246-5.1479 1.23-2.2019 1.845-4.6304 1.845-7.2855v-13.5024c0-2.5904-.971-4.695-2.914-6.314-1.878-1.6838-4.403-2.5257-7.577-2.5257-2.914 0-5.472.7772-7.674 2.3314-2.137 1.4895-3.723 3.4322-4.759 5.8284l-9.132-4.5656c.972-2.5904 2.558-4.857 4.76-6.7998 2.202-2.0075 4.76-3.5617 7.674-4.6626 2.979-1.101 6.12-1.6514 9.423-1.6514 4.144 0 7.803.7771 10.977 2.3313 3.238 1.5543 5.731 3.7237 7.479 6.5084 1.814 2.7199 2.72 5.8931 2.72 9.5196v35.3588h-10.491v-9.52l2.234.292c-1.23 2.137-2.817 3.982-4.759 5.537-1.878 1.554-4.048 2.752-6.509 3.594-2.396.842-5.083 1.263-8.062 1.263z"/><path d="m383.757 113.583c-5.504 0-9.778-1.554-12.822-4.663-3.044-3.108-4.566-7.48-4.566-13.1137v-25.4505h-9.228v-9.9082h1.457c2.461 0 4.372-.7124 5.732-2.1371s2.039-3.3675 2.039-5.8284v-4.0798h10.977v12.0453h11.948v9.9082h-11.948v24.9648c0 1.8133.292 3.3675.874 4.6627.583 1.2307 1.522 2.2017 2.818 2.9137 1.295.648 2.978.972 5.051.972.518 0 1.101-.033 1.748-.097.648-.065 1.263-.13 1.846-.195v9.423c-.907.129-1.91.259-3.011.389-1.101.129-2.073.194-2.915.194z"/><path d="m425.03 114.166c-5.245 0-9.908-1.198-13.988-3.595-4.015-2.46-7.156-5.763-9.422-9.908-2.267-4.2091-3.4-8.9042-3.4-14.085 0-5.3102 1.133-10.0053 3.4-14.0852 2.331-4.0798 5.439-7.2854 9.325-9.6168 3.886-2.3961 8.289-3.5941 13.211-3.5941 3.95 0 7.48.68 10.588 2.0399 3.109 1.36 5.731 3.238 7.869 5.6341 2.137 2.3313 3.756 5.0189 4.856 8.0626 1.166 3.0437 1.749 6.2816 1.749 9.7139 0 .8419-.032 1.7161-.097 2.6228-.065.9066-.194 1.7485-.389 2.5256h-41.867v-8.7426h35.65l-5.245 3.9828c.647-3.1733.421-5.9903-.68-8.4512-1.036-2.5256-2.655-4.5008-4.857-5.9255-2.137-1.4894-4.663-2.2342-7.577-2.2342s-5.505.7448-7.771 2.2342c-2.267 1.4247-4.015 3.497-5.246 6.217-1.23 2.6551-1.716 5.8931-1.457 9.7139-.324 3.5618.162 6.6702 1.457 9.3254 1.36 2.6551 3.238 4.7274 5.634 6.2164 2.461 1.49 5.246 2.235 8.354 2.235 3.174 0 5.861-.713 8.063-2.137 2.267-1.425 4.047-3.2707 5.343-5.5373l8.936 4.3713c-1.036 2.461-2.655 4.695-4.856 6.703-2.138 1.942-4.728 3.497-7.772 4.662-2.979 1.101-6.249 1.652-9.811 1.652z"/><path d="m473.567 113-18.068-52.5524h11.656l13.794 41.8674h-4.08l14.085-41.8674h10.006l13.988 41.8674h-4.08l13.891-41.8674h11.657l-18.165 52.5524h-9.909l-14.182-42.8385h3.594l-14.182 42.8385z"/><path d="m558.691 114.166c-3.562 0-6.703-.616-9.423-1.846-2.655-1.295-4.727-3.044-6.216-5.246-1.49-2.266-2.235-4.921-2.235-7.965 0-2.8494.616-5.4074 1.846-7.674 1.295-2.2666 3.27-4.177 5.926-5.7312 2.655-1.5542 5.99-2.6551 10.005-3.3027l18.262-3.0114v8.6454l-16.125 2.8171c-2.914.5181-5.051 1.4571-6.411 2.817-1.36 1.2952-2.04 2.979-2.04 5.0513 0 2.0075.745 3.6585 2.234 4.9545 1.554 1.23 3.529 1.845 5.926 1.845 2.978 0 5.569-.647 7.771-1.943 2.266-1.295 4.015-3.011 5.245-5.1479 1.231-2.2019 1.846-4.6304 1.846-7.2855v-13.5024c0-2.5904-.972-4.695-2.914-6.314-1.878-1.6838-4.404-2.5257-7.577-2.5257-2.914 0-5.472.7772-7.674 2.3314-2.137 1.4895-3.724 3.4322-4.76 5.8284l-9.131-4.5656c.971-2.5904 2.558-4.857 4.76-6.7998 2.202-2.0075 4.76-3.5617 7.674-4.6626 2.979-1.101 6.119-1.6514 9.422-1.6514 4.145 0 7.804.7771 10.977 2.3313 3.238 1.5543 5.731 3.7237 7.48 6.5084 1.813 2.7199 2.72 5.8931 2.72 9.5196v35.3588h-10.491v-9.52l2.234.292c-1.231 2.137-2.817 3.982-4.76 5.537-1.878 1.554-4.048 2.752-6.508 3.594-2.397.842-5.084 1.263-8.063 1.263z"/><path d="m604.686 134.468c-1.295 0-2.59-.13-3.885-.389-1.231-.194-2.364-.518-3.4-.971v-9.423c.777.195 1.716.356 2.817.486 1.101.194 2.17.291 3.206.291 3.043 0 5.278-.68 6.702-2.04 1.49-1.295 2.817-3.335 3.983-6.119l3.497-7.966-.194 9.229-22.731-57.1184h11.754l16.805 43.8094h-3.983l16.708-43.8094h11.851l-23.216 58.2834c-1.23 3.109-2.785 5.829-4.663 8.16-1.813 2.396-3.982 4.242-6.508 5.537-2.461 1.36-5.375 2.04-8.743 2.04z"/></g><path d="m0 35.6098c0-19.6668 15.943-35.6098 35.6098-35.6098h74.7802c19.667 0 35.61 15.943 35.61 35.6098v74.7802c0 19.667-15.943 35.61-35.61 35.61h-74.7802c-19.6668 0-35.6098-15.943-35.6098-35.61z" fill="#e6d5fa"/><path d="m72.6798 39.1698c-4.4006 0-8.7581.852-12.8237 2.5073-4.0657 1.6554-7.7598 4.0816-10.8715 7.1403s-5.5801 6.6899-7.2641 10.6862c-1.6841 3.9963-2.5508 8.2796-2.5508 12.6052s.8667 8.6089 2.5508 12.6052c1.684 3.9964 4.1524 7.6275 7.2641 10.6862s6.8058 5.4848 10.8715 7.1398c4.0656 1.656 8.4231 2.508 12.8237 2.508z" fill="#771ac9"/><path d="m77.787 39.1698h2.234c14.8057 0 26.808 11.7979 26.808 26.3512z" fill="#771ac9"/><path d="m106.829 81.5438v23.5042h-29.042v-23.5042c0-7.6361 6.5013-13.8263 14.521-13.8263 8.02 0 14.521 6.1902 14.521 13.8263z" fill="#771ac9"/></svg>